<?xml version="1.0" standalone="no"?>
<!DOCTYPE svg PUBLIC "-//W3C//DTD SVG 20010904//EN"
 "http://www.w3.org/TR/2001/REC-SVG-20010904/DTD/svg10.dtd">
<svg version="1.0" xmlns="http://www.w3.org/2000/svg"
 width="200.000000pt" height="150.000000pt" viewBox="0 0 200.000000 150.000000"
 preserveAspectRatio="xMidYMid meet">

<g transform="translate(0.000000,150.000000) scale(0.100000,-0.100000)"
fill="#000000" stroke="none">
<path d="M0 750 l0 -750 1000 0 1000 0 0 750 0 750 -1000 0 -1000 0 0 -750z
m1168 575 c70 -21 63 -28 -8 -9 -70 19 -199 21 -270 5 -304 -71 -498 -388
-424 -690 50 -204 218 -373 418 -420 69 -17 221 -15 281 3 27 9 51 13 53 11 2
-2 -22 -12 -54 -22 -87 -26 -239 -24 -329 4 -179 56 -324 195 -386 369 -27 75
-36 221 -19 306 45 231 249 425 485 462 54 8 199 -3 253 -19z m102 -40 c17 -9
30 -18 30 -21 0 -4 -59 23 -69 32 -10 9 13 3 39 -11z m-94 -55 c80 -28 131
-60 191 -121 255 -257 153 -687 -192 -810 -79 -28 -216 -31 -299 -6 -32 10
-56 20 -54 22 2 2 26 -3 53 -11 36 -11 78 -14 152 -11 94 3 109 7 179 41 143
71 240 201 265 356 39 237 -114 475 -345 536 -67 18 -190 18 -251 -1 -27 -8
-51 -12 -53 -10 -4 4 81 30 128 39 46 8 169 -5 226 -24z m104 -185 c0 -3 -13
-32 -29 -64 l-30 -58 -97 -34 c-86 -30 -99 -38 -121 -72 -43 -68 -42 -70 33
-43 38 14 70 24 71 22 2 -1 -10 -27 -26 -56 -27 -49 -35 -56 -88 -74 l-58 -21
-33 -81 -33 -80 -70 -21 c-43 -13 -68 -16 -66 -9 129 324 182 445 205 468 33
34 342 144 342 123z m20 -780 c0 -6 -56 -35 -67 -35 -4 1 8 9 27 20 39 22 40
22 40 15z"/>
</g>
</svg>
